<mxfile host="app.diagrams.net" modified="2023-10-23T09:25:00.933Z" agent="Mozilla/5.0 (Macintosh; Intel Mac OS X 10.15; rv:109.0) Gecko/20100101 Firefox/118.0" version="22.0.6" etag="mJFTn8ilrm25AQb_-m1t" type="github">
  <diagram name="Page-1" id="9Jj39A-vLBDV_zgjqW72">
    <mxGraphModel>
      <root>
        <mxCell id="0" />
        <mxCell id="1" parent="0" />
      </root>
    </mxGraphModel>
  </diagram>
</mxfile>
